<?xml version="1.0" encoding="UTF-8" standalone="no"?>
<!-- Created with Inkscape (http://www.inkscape.org/) -->

<svg
   xmlns:dc="http://purl.org/dc/elements/1.1/"
   xmlns:cc="http://creativecommons.org/ns#"
   xmlns:rdf="http://www.w3.org/1999/02/22-rdf-syntax-ns#"
   xmlns:svg="http://www.w3.org/2000/svg"
   xmlns="http://www.w3.org/2000/svg"
   xmlns:sodipodi="http://sodipodi.sourceforge.net/DTD/sodipodi-0.dtd"
   xmlns:inkscape="http://www.inkscape.org/namespaces/inkscape"
   width="80"
   height="120"
   viewBox="0 0 80.000001 120"
   id="svg7569"
   version="1.1"
   inkscape:version="0.91 r13725"
   sodipodi:docname="spadeFoundation.svg">
  <defs
     id="defs7571" />
  <sodipodi:namedview
     id="base"
     pagecolor="#ffffff"
     bordercolor="#666666"
     borderopacity="1.0"
     inkscape:pageopacity="0.0"
     inkscape:pageshadow="2"
     inkscape:zoom="2.5840708"
     inkscape:cx="8.1404111"
     inkscape:cy="55.839041"
     inkscape:document-units="px"
     inkscape:current-layer="g6708"
     showgrid="true"
     inkscape:window-width="785"
     inkscape:window-height="786"
     inkscape:window-x="0"
     inkscape:window-y="1"
     inkscape:window-maximized="0"
     units="px"
     objecttolerance="10000"
     guidetolerance="10000"
     inkscape:snap-path-clip="true"
     inkscape:snap-path-mask="true">
    <inkscape:grid
       type="xygrid"
       id="grid7668"
       empspacing="20" />
  </sodipodi:namedview>
  <metadata
     id="metadata7574">
    <rdf:RDF>
      <cc:Work
         rdf:about="">
        <dc:format>image/svg+xml</dc:format>
        <dc:type
           rdf:resource="http://purl.org/dc/dcmitype/StillImage" />
        <dc:title></dc:title>
      </cc:Work>
    </rdf:RDF>
  </metadata>
  <g
     inkscape:label="Layer 1"
     inkscape:groupmode="layer"
     id="layer1"
     transform="translate(0,-932.36216)">
    <g
       id="g6708"
       transform="matrix(0.99553491,0,0,0.99680337,-539.08729,873.16162)">
      <path
         sodipodi:nodetypes="cccccccccccc"
         inkscape:connector-curvature="0"
         id="path153-6-3-1-6-92-7-2-9-8"
         d="m 581.9286,94.324778 c -9.22602,13.157102 -19.09775,20.728542 -19.26175,30.993272 -0.055,3.3239 1.7421,8.97341 7.37112,10.05477 3.65201,0.69832 8.68012,-2.25748 8.78512,-8.26251 -0.016,-1.19555 1.26591,-1.16448 1.25391,0.47372 -0.172,4.73671 -1.67141,10.25154 -4.19141,14.74066 4.02871,0 8.05732,0 12.08603,0 -2.52001,-4.48912 -4.01941,-10.00395 -4.19141,-14.74066 -0.012,-1.6382 1.2699,-1.66927 1.2539,-0.47372 0.105,6.00503 5.13312,8.96083 8.78513,8.26251 5.62901,-1.08136 7.42612,-6.73087 7.37112,-10.05477 -0.164,-10.26473 -10.03573,-17.83617 -19.26176,-30.993272 z"
         style="display:inline;opacity:1" />
    </g>
  </g>
</svg>
